<svg width="256" height="256" viewBox="0 0 256 256" fill="none" xmlns="http://www.w3.org/2000/svg">
<rect width="256" height="256" fill="white"/>
<g clip-path="url(#clip0_66_3)">
<path d="M158.307 153.956L131.454 127.103C129.366 124.998 125.954 124.998 123.867 127.103L97.0138 153.956C94.909 156.061 94.909 159.455 97.0138 161.543C98.0661 162.596 99.4241 163.105 100.816 163.105C102.191 163.105 103.566 162.579 104.618 161.543L122.305 143.856V204.725C122.305 207.678 124.715 210.089 127.669 210.089C130.622 210.089 133.032 207.678 133.032 204.725V143.856L150.719 161.543C151.772 162.596 153.13 163.105 154.521 163.105C155.896 163.105 157.271 162.579 158.324 161.543C160.411 159.455 160.411 156.044 158.307 153.956Z" fill="#DC8379"/>
<path d="M186.517 98.9771C183.937 68.7805 158.51 45 127.669 45C95.0955 45 68.5992 71.4963 68.5992 104.069C68.5992 106.768 68.8029 109.467 69.1763 112.166C68.5313 112.132 67.8863 112.115 67.2583 112.115C45.7863 112.115 28.3201 129.581 28.3201 151.053C28.3201 172.525 45.7863 189.991 67.2583 189.991H100.816C103.786 189.991 106.18 187.581 106.18 184.628C106.18 181.674 103.769 179.264 100.816 179.264H67.2583C51.7102 179.264 39.0646 166.618 39.0646 151.07C39.0646 135.522 51.6932 122.842 67.2583 122.842C69.6686 122.842 72.1468 123.182 74.625 123.861C76.4921 124.37 78.4781 123.827 79.8529 122.452C81.2109 121.077 81.7201 119.074 81.2109 117.207C79.9718 112.828 79.3437 108.398 79.3437 104.035C79.3437 77.3863 101.019 55.7106 127.669 55.7106C154.318 55.7106 175.993 77.3863 175.993 104.035C175.993 107.006 178.404 109.399 181.357 109.399C200.606 109.399 216.272 125.066 216.272 144.315C216.272 163.563 200.623 179.23 181.357 179.23H154.504C151.534 179.23 149.141 181.64 149.141 184.594C149.141 187.564 151.551 189.957 154.504 189.957H181.357C206.529 189.957 227 169.487 227 144.315C227 120.907 209.279 101.54 186.517 98.9771Z" fill="#F49819"/>
<path d="M186.517 98.9771C183.937 68.7805 158.51 45 127.669 45C95.0955 45 68.5992 71.4963 68.5992 104.069C68.5992 106.768 68.8029 109.467 69.1763 112.166C68.5313 112.132 67.8863 112.115 67.2583 112.115C45.7863 112.115 28.3201 129.581 28.3201 151.053C28.3201 172.525 45.7863 189.991 67.2583 189.991H100.816C103.786 189.991 106.18 187.581 106.18 184.628C106.18 181.674 103.769 179.264 100.816 179.264H67.2583C51.7102 179.264 39.0646 166.618 39.0646 151.07C39.0646 135.522 51.6932 122.842 67.2583 122.842C69.6686 122.842 72.1468 123.182 74.625 123.861C76.4921 124.37 78.4781 123.827 79.8529 122.452C81.2109 121.077 81.7201 119.074 81.2109 117.207C79.9718 112.828 79.3437 108.398 79.3437 104.035C79.3437 77.3863 101.019 55.7106 127.669 55.7106C154.318 55.7106 175.993 77.3863 175.993 104.035C175.993 107.006 178.404 109.399 181.357 109.399C200.606 109.399 216.272 125.066 216.272 144.315C216.272 163.563 200.623 179.23 181.357 179.23H154.504C151.534 179.23 149.141 181.64 149.141 184.594C149.141 187.564 151.551 189.957 154.504 189.957H181.357C206.529 189.957 227 169.487 227 144.315C227 120.907 209.279 101.54 186.517 98.9771Z" fill="url(#paint0_linear_66_3)"/>
</g>
<defs>
<linearGradient id="paint0_linear_66_3" x1="249.886" y1="248.568" x2="47.5597" y2="41.2762" gradientUnits="userSpaceOnUse">
<stop offset="0.027355" stop-color="#7C35E0"/>
<stop offset="0.411367" stop-color="#C178AC"/>
<stop offset="0.868903" stop-color="#FEC342"/>
<stop offset="1" stop-color="#BB7DC3" stop-opacity="0"/>
</linearGradient>
<clipPath id="clip0_66_3">
<rect width="200" height="200" fill="white" transform="translate(27 43)"/>
</clipPath>
</defs>
</svg>
