<?xml version="1.0" encoding="utf-8"?>
<!-- Generator: Adobe Illustrator 19.1.0, SVG Export Plug-In . SVG Version: 6.00 Build 0)  -->
<svg version="1.1" id="Layer_1" xmlns="http://www.w3.org/2000/svg" xmlns:xlink="http://www.w3.org/1999/xlink" x="0px" y="0px"
	 viewBox="0 0 1500 1500" style="enable-background:new 0 0 1500 1500;" xml:space="preserve">
<style type="text/css">
	.st0{fill:#F49819;}
	.st1{font-family:'YanoneKaffeesatz-Regular';}
	.st2{font-size:495.1904px;}
</style>
<g>
	<path class="st0" d="M930.5,686.3L772.3,528.1c-12.3-12.4-32.4-12.4-44.7,0L569.4,686.3c-12.4,12.4-12.4,32.4,0,44.7
		c6.2,6.2,14.2,9.2,22.4,9.2c8.1,0,16.2-3.1,22.4-9.2l104.2-104.2v358.6c0,17.4,14.2,31.6,31.6,31.6c17.4,0,31.6-14.2,31.6-31.6
		V626.8L885.8,731c6.2,6.2,14.2,9.2,22.4,9.2c8.1,0,16.2-3.1,22.4-9.2C942.9,718.7,942.9,698.6,930.5,686.3z"/>
	<path class="st0" d="M1096.7,362.4c-15.2-177.9-165-318-346.7-318c-191.9,0-348,156.1-348,348c0,15.9,1.2,31.8,3.4,47.7
		c-3.8-0.2-7.6-0.3-11.3-0.3c-126.5,0-229.4,102.9-229.4,229.4s102.9,229.4,229.4,229.4h197.7c17.5,0,31.6-14.2,31.6-31.6
		c0-17.4-14.2-31.6-31.6-31.6H394.1c-91.6,0-166.1-74.5-166.1-166.1S302.4,503,394.1,503c14.2,0,28.8,2,43.4,6
		c11,3,22.7-0.2,30.8-8.3c8-8.1,11-19.9,8-30.9c-7.3-25.8-11-51.9-11-77.6c0-157,127.7-284.7,284.7-284.7s284.7,127.7,284.7,284.7
		c0,17.5,14.2,31.6,31.6,31.6c113.4,0,205.7,92.3,205.7,205.7s-92.2,205.7-205.7,205.7H908.1c-17.5,0-31.6,14.2-31.6,31.6
		c0,17.5,14.2,31.6,31.6,31.6h158.2c148.3,0,268.9-120.6,268.9-268.9C1335.2,491.6,1230.8,377.5,1096.7,362.4z"/>
</g>
<text transform="matrix(1 0 0 1 76.7289 1457.7593)" class="st1 st2">SAFE SVG</text>
</svg>
